<?xml version="1.0" encoding="utf-8"?>
<!-- Generator: Adobe Illustrator 25.2.3, SVG Export Plug-In . SVG Version: 6.00 Build 0)  -->
<svg version="1.1" id="_x2014_ÎÓÈ_x5F_1" xmlns="http://www.w3.org/2000/svg" xmlns:xlink="http://www.w3.org/1999/xlink"
	 x="0px" y="0px" viewBox="0 0 5118.3 2992.7" style="enable-background:new 0 0 5118.3 2992.7;" xml:space="preserve">
<style type="text/css">
	.st0{fill:#3399CC;}
	.st1{fill:#3399CC;stroke:#FFFFFF;stroke-width:4;stroke-miterlimit:10;}
</style>
<g>
	<g>
		<path class="st0" d="M2474.8,1838.4c-5.4-17.5-8.4-36-8.4-55.1c0-111.9,99.3-202.6,221.8-202.6c42.7,0,82.6,11.1,116.5,30.2
			c-1.2-9.9-1.8-20-1.8-30.2c0-153.7,136.4-278.4,304.7-278.4c168.3,0,304.7,124.6,304.7,278.4c0,1,0,2.1,0,3.1
			c46.7-26.5,101.7-41.8,160.7-41.8c168.3,0,304.7,124.6,304.7,278.4c0,78.3-35.4,149-92.3,199.5c69.2,11.7,121.8,69.3,121.8,138.7
			c0,77.8-66.2,140.9-147.8,140.9H2491.1c-139.5,0-252.7-103.3-252.7-230.8C2238.4,1946.2,2342.8,1846.1,2474.8,1838.4z"/>
	</g>
	<g>
		<g>
			<g>
				<path class="st1" d="M2835.3,2589.9c93.8,0,168.9-43.8,241.4-86.3c62.8-36.7,122.1-71.4,190.8-77.2c9.4-0.8,18.8-1.2,27.9-1.2
					c122.3,0,175.8,71.6,178,74.7c7.1,9.8,18.8,15.6,31.3,15.6c7.7,0,15.1-2.2,21.4-6.3c17.2-11.2,21.6-33.7,10-50.2
					c-3.1-4.3-77.5-106.2-240.4-106.2c-11.4,0-23.1,0.5-34.9,1.5c-86.5,7.4-156.2,48.1-223.7,87.6c-66.5,38.9-129.4,75.6-201.9,75.6
					c-4.8,0-9.7-0.2-14.6-0.5c-165.9-11.1-210.5-75.7-212.6-91c-2.3-16.8,3.9-37.3,14.9-48.7c6.5-6.8,14.4-10.1,24-10.1
					c0.7,0,1.4,0,2.1,0.1c18.1,0.9,29.8,13.9,34,19.5c4.2,5.5,6.3,10.4,7.2,13.5c-8.6,13.2-7.5,30.4,3.5,42.6
					c7.2,8,17.7,12.6,28.8,12.6c9,0,17.8-3.1,24.7-8.7c19.4-15.8,24.7-42.6,14.3-71.6c-13.2-36.8-52.8-77.6-108.8-80.3
					c-2-0.1-4-0.1-6-0.1c-31.1,0-58.6,11.6-79.8,33.4c-26.2,27.1-39.6,69.2-34.3,107.3c5,35.5,34,71.5,79.8,98.8
					c50.9,30.4,121.1,49.4,202.8,54.9C2821.9,2589.7,2828.7,2589.9,2835.3,2589.9L2835.3,2589.9z"/>
			</g>
			<g>
				<path class="st1" d="M2646.8,2308.7c1.8,0,3.5,0,5.3,0.1c49.1,2.3,84.1,38.4,95.7,70.9c8.4,23.4,4.6,44.5-10,56.6
					c-4.4,3.6-9.8,5.4-15.2,5.4c-6.6,0-13.2-2.6-17.8-7.8c-7.9-8.7-7.4-21.6,0.7-29.8c0.3-4-2.2-14.4-10.6-25.4
					c-5.4-7.2-20.7-24-45.1-25.2c-1,0-1.9-0.1-2.9-0.1c-13.7,0-25.4,4.9-34.7,14.5c-13.9,14.4-21.5,39-18.6,59.9
					c4,28.9,64.6,92.2,226,103c5.3,0.4,10.4,0.5,15.6,0.5c76.6,0,141.3-37.8,209.5-77.6c66-38.6,134.3-78.5,217.4-85.6
					c11.6-1,22.8-1.4,33.6-1.4c155.2,0,225.3,95.8,228.4,100.2c7.2,10.2,4.5,24-6.2,30.9c-4,2.6-8.6,3.9-13.2,3.9
					c-7.4,0-14.8-3.4-19.3-9.6c-2.6-3.5-60.2-80.7-189.9-80.7c-9.4,0-19.1,0.4-29.2,1.3c-72.1,6.1-132.8,41.6-197.1,79.2
					c-70.9,41.5-144.1,84.2-233.8,84.2c0,0,0,0,0,0c-6.2,0-12.6-0.2-19-0.6c-79.4-5.3-147.2-23.6-196.1-52.8
					c-42-25.1-68.7-57.5-73.1-88.9c-4.8-34.1,7.2-71.9,30.6-96C2596.1,2318.6,2619.9,2308.7,2646.8,2308.7 M2646.8,2281
					c-35.2,0-66.5,13.1-90.4,37.9c-29.4,30.5-44,75.9-38,118.5c5.5,39.6,37,79.2,86.4,108.7c53,31.6,125.4,51.3,209.5,57
					c7,0.5,14.1,0.7,21,0.7c44.3,0,88.6-9.4,135.5-28.9c40.3-16.7,77.5-38.4,113.5-59.5c61.3-35.8,119.1-69.6,184.5-75.2
					c9-0.8,18-1.2,26.6-1.2c48,0,90.4,11.5,126,34c26.9,17.1,39.9,34.5,40,34.7c9.8,13.5,26,21.6,43.2,21.6c10.6,0,20.9-3,29.6-8.8
					c23.8-15.5,29.9-46.7,13.8-69.4c-2.3-3.2-23.2-31.7-64.7-59c-53.2-34.9-118.1-53.3-187.7-53.3c-11.8,0-24,0.5-36.2,1.6
					c-89.9,7.7-161.1,49.3-230,89.6c-64.7,37.8-125.9,73.6-194.3,73.6c-4.5,0-9.1-0.2-13.6-0.5c-82.3-5.5-131.5-25-158.2-40.3
					c-31.7-18.2-40.5-35.2-41-38.7c-1.8-12.7,3.1-29.1,11.2-37.4c3.8-4,7.7-5.6,13.3-5.6c0.5,0,0.9,0,1.4,0c11.8,0.6,20,9.8,23,13.7
					c1.3,1.7,2.3,3.3,3,4.7c-7.8,17.1-5,37.5,8.4,52.4c10,11.1,24.5,17.5,39.9,17.5c12.5,0,24.6-4.3,34.2-12.1
					c24-19.7,31-52,18.6-86.6c-7.9-22-22.9-42.9-42.4-58.9c-22.9-18.8-50.4-29.4-79.4-30.8C2651.3,2281,2649,2281,2646.8,2281
					L2646.8,2281z"/>
			</g>
		</g>
		<g>
			<g>
				<path class="st1" d="M2956.7,2398.6c63.6,0,116.3-29.2,167.2-57.4c41.3-22.9,80.2-44.5,120.9-48c4.8-0.4,9.6-0.6,14.5-0.6
					c80.8,0,147.6,56.2,148.3,56.8c7,6,16,9.3,25.5,9.3c10.7,0,20.9-4.3,28.1-11.8c14.1-14.7,12.9-37.7-2.5-51.1
					c-3.6-3.1-88.2-75.6-199.1-75.6c-7.2,0-14.4,0.3-21.5,0.9c-57.5,4.9-105.7,31.6-152.3,57.5c-44.2,24.5-85.9,47.6-129.2,47.6
					c-2.7,0-5.5-0.1-8.2-0.3c-93.5-6.3-121.2-40.4-122.4-46.5c-0.9-6.7,1.7-15.8,5.9-20.2c1.6-1.7,2.7-2.1,5-2.1c0.2,0,0.5,0,0.7,0
					c5.2,0.2,9.4,4.5,11.7,7.8c-4.4,12-2,25.8,6.9,35.7c7.2,8,17.7,12.7,28.8,12.7c9,0,17.8-3.1,24.7-8.7
					c16.8-13.7,21.7-36,13.2-59.8c-9.8-27.5-39.5-58-81.5-60c-1.5-0.1-2.9-0.1-4.4-0.1c-23.5,0-45.1,9.1-61,25.5
					c-19.3,20-29.2,50.9-25.3,78.9c3.7,26.3,23.3,51.5,55.2,71c34.7,21.2,82.1,34.4,137.1,38.1
					C2947.6,2398.4,2952.2,2398.6,2956.7,2398.6z"/>
			</g>
			<g>
				<path class="st1" d="M2837.1,2198.6c1.2,0,2.4,0,3.6,0.1c35.2,1.7,60.2,27.4,68.5,50.6c6.5,18.1,3.2,34.9-8.9,44.8
					c-4.4,3.6-9.8,5.4-15.2,5.4c-6.6,0-13.2-2.6-17.8-7.8c-6.9-7.7-7.4-18.5-1.9-26.6c-1.8-6.5-11.3-20.9-26.9-21.7
					c-0.5,0-1,0-1.5,0c-6.3,0-11.3,2.1-15.7,6.6c-7.1,7.4-11.2,20.6-9.6,31.5c2.2,15.6,39.4,52,135.8,58.4c3.1,0.2,6.2,0.3,9.2,0.3
					c47.3,0,90.7-24.1,136.5-49.5c45.2-25.1,92-51,146.3-55.7c6.8-0.6,13.6-0.9,20.2-0.9c105.3,0,185.8,68.9,189.3,72
					c9.5,8.3,10.2,22.4,1.5,31.5c-4.6,4.8-11,7.3-17.3,7.3c-5.6,0-11.3-1.9-15.7-5.8c-0.7-0.6-71-60.4-158-60.4
					c-5.2,0-10.5,0.2-15.8,0.7c-43.9,3.7-84.3,26.1-126.9,49.8c-49.3,27.3-100.2,55.6-159.9,55.6c-4.2,0-8.4-0.1-12.6-0.4
					c-114.7-7.7-173.1-55.7-178.9-97.1c-3.4-24,5.1-50.5,21.6-67.6C2799.9,2205.9,2817.7,2198.6,2837.1,2198.6 M2837.1,2170.8
					c-27.6,0-53.1,10.6-71.7,30c-22.4,23.2-33.6,57.8-29,90.1c7.5,53.9,74.1,112.3,205.7,121.1c4.9,0.3,9.8,0.5,14.7,0.5
					c67.5,0,124.4-31.5,174.5-59.3c39.8-22.1,77.4-42.9,114.9-46.1c4.3-0.4,8.8-0.6,13.2-0.6c74.4,0,137.2,52.1,138.6,53.3
					c9.7,8.3,22.1,12.9,35.2,12.9c14.8,0,28.9-6,38.8-16.4c19.4-20.4,17.9-52.1-3.4-70.7c-2.5-2.2-25.6-21.9-62.1-41
					c-48.6-25.4-98-38.2-146.8-38.2c-7.6,0-15.3,0.3-22.8,1c-60.8,5.2-112.6,33.9-158.4,59.3l-0.1,0.1
					c-42.4,23.5-82.4,45.7-121.8,45.7c-2.4,0-4.8-0.1-7.2-0.2c-8.8-0.6-16.9-1.4-24.3-2.5c16.4-17.5,21-43.3,11.7-69.3
					c-6.1-17.1-17.7-33.2-32.8-45.5c-17.8-14.5-39.2-22.8-61.8-23.9C2840.5,2170.9,2838.8,2170.8,2837.1,2170.8
					C2837.1,2170.8,2837.1,2170.8,2837.1,2170.8L2837.1,2170.8z"/>
			</g>
		</g>
	</g>
</g>
<g>
	<g>
		<path class="st0" d="M2348.4,1027.7c-30.1,0-58.9,5.3-85.6,15c8.7-25.4,13.3-52.5,13.3-80.8c0-138-111.9-249.8-249.8-249.8
			c-122.8,0-224.8,88.6-245.9,205.2c-45.4-47.2-109.3-76.7-180.1-76.7c-129.4,0-235.7,98.3-248.5,224.2
			c-38.2-23.7-83.1-37.3-131.3-37.3c-138,0-249.8,111.9-249.8,249.8c0,132.6,103.3,241.1,233.9,249.3l0,0h0.3
			c5.2,0.3,10.3,0.5,15.6,0.5c5.3,0,10.5-0.1,15.6-0.5h119.6c23.6,113.4,124.1,198.6,244.5,198.6c108.9,0,201.4-69.6,235.7-166.8
			c45.8,53.8,114,88,190.3,88c90.4,0,169.5-48,213.4-119.8h93.1c5.2,0.3,10.3,0.5,15.6,0.5c138,0,249.8-111.9,249.8-249.8
			C2598.2,1139.5,2486.4,1027.7,2348.4,1027.7z"/>
	</g>
	<path class="st0" d="M1874,2085.7c0,35.7-29,64.7-64.7,64.7s-64.7-29-64.7-64.7c0-56.6,41.1-134.2,64.7-134.2
		C1832.3,1951.6,1874,2026.4,1874,2085.7z"/>
	<path class="st0" d="M2183.8,1933.4c0,35.7-29,64.7-64.7,64.7s-64.7-29-64.7-64.7c0-56.6,41.1-134.2,64.7-134.2
		C2142,1799.1,2183.8,1874.1,2183.8,1933.4z"/>
	<path class="st0" d="M1496.6,1986.3c0,35.7-29,64.7-64.7,64.7c-35.7,0-64.7-29-64.7-64.7c0-56.6,41.1-134.2,64.7-134.2
		C1454.9,1852.1,1496.6,1927,1496.6,1986.3z"/>
	<path class="st0" d="M1738.2,1869.4c0,18.7-15.2,33.9-33.9,33.9s-33.9-15.2-33.9-33.9c0-29.6,21.5-70.3,33.9-70.3
		C1716.4,1799.1,1738.2,1838.4,1738.2,1869.4z"/>
	<path class="st0" d="M1229.3,1758.5c0,18.7-15.2,33.9-33.9,33.9s-33.9-15.2-33.9-33.9c0-29.6,21.5-70.3,33.9-70.3
		C1207.5,1688.2,1229.3,1727.5,1229.3,1758.5z"/>
	<path class="st0" d="M2407.4,1755.1c0,18.7-15.2,33.9-33.9,33.9c-18.7,0-33.9-15.2-33.9-33.9c0-29.6,21.5-70.3,33.9-70.3
		C2385.6,1684.8,2407.4,1724,2407.4,1755.1z"/>
</g>
</svg>
