<?xml version="1.0" encoding="utf-8"?>
<!-- Generator: Adobe Illustrator 25.2.3, SVG Export Plug-In . SVG Version: 6.00 Build 0)  -->
<svg version="1.1" id="_x3C_Layer_x3E_" xmlns="http://www.w3.org/2000/svg" xmlns:xlink="http://www.w3.org/1999/xlink" x="0px"
	 y="0px" viewBox="0 0 4755 3170" style="enable-background:new 0 0 4755 3170;" xml:space="preserve">
<style type="text/css">
	.st0{fill:#3399CC;}
</style>
<g>
	<g>
		<path class="st0" d="M3130.7,1046c-40.2,0-78.7,7.1-114.3,20.1c11.6-33.9,17.8-70.1,17.8-107.9c0-184.3-149.4-333.7-333.7-333.7
			c-164,0-300.3,118.3-328.4,274.1c-60.7-63.1-146-102.4-240.5-102.4c-172.8,0-314.8,131.3-331.9,299.5
			c-51-31.6-111-49.8-175.4-49.8c-184.3,0-333.7,149.4-333.7,333.7c0,177.1,138,322,312.4,333v0h0.4c6.9,0.4,13.8,0.7,20.9,0.7
			s14-0.2,20.9-0.7H1805c31.5,151.5,165.8,265.3,326.6,265.3c145.4,0,269-93,314.8-222.8c61.2,71.9,152.3,117.5,254.1,117.5
			c120.7,0,226.4-64.1,285-160h124.3c6.9,0.4,13.8,0.7,20.9,0.7c184.3,0,333.7-149.4,333.7-333.7
			C3464.3,1195.3,3314.9,1046,3130.7,1046z"/>
	</g>
	<path class="st0" d="M2497.1,2459.1c0,47.7-38.7,86.4-86.4,86.4c-47.7,0-86.4-38.7-86.4-86.4c0-75.6,54.9-179.2,86.4-179.2
		C2441.4,2279.9,2497.1,2379.9,2497.1,2459.1z"/>
	<path class="st0" d="M2910.8,2255.6c0,47.7-38.7,86.4-86.4,86.4c-47.7,0-86.4-38.7-86.4-86.4c0-75.6,54.9-179.2,86.4-179.2
		C2855,2076.3,2910.8,2176.4,2910.8,2255.6z"/>
	<path class="st0" d="M1993,2326.3c0,47.7-38.7,86.4-86.4,86.4c-47.7,0-86.4-38.7-86.4-86.4c0-75.6,54.9-179.2,86.4-179.2
		C1937.3,2147.1,1993,2247.1,1993,2326.3z"/>
	<path class="st0" d="M2315.7,2170.2c0,25-20.3,45.3-45.3,45.3c-25,0-45.3-20.3-45.3-45.3c0-39.6,28.7-93.9,45.3-93.9
		C2286.5,2076.3,2315.7,2128.7,2315.7,2170.2z"/>
	<path class="st0" d="M1636,2022.1c0,25-20.3,45.3-45.3,45.3c-25,0-45.3-20.3-45.3-45.3c0-39.6,28.7-93.9,45.3-93.9
		C1606.8,1928.2,1636,1980.6,1636,2022.1z"/>
	<path class="st0" d="M3209.5,2017.5c0,25-20.3,45.3-45.3,45.3c-25,0-45.3-20.3-45.3-45.3c0-39.6,28.7-93.9,45.3-93.9
		C3180.3,1923.6,3209.5,1976,3209.5,2017.5z"/>
</g>
</svg>
