<?xml version="1.0" encoding="utf-8"?>
<!-- Generator: Adobe Illustrator 25.2.3, SVG Export Plug-In . SVG Version: 6.00 Build 0)  -->
<svg version="1.1" id="_x2014_ÎÓÈ_x5F_1" xmlns="http://www.w3.org/2000/svg" xmlns:xlink="http://www.w3.org/1999/xlink"
	 x="0px" y="0px" viewBox="0 0 5118.3 2992.7" style="enable-background:new 0 0 5118.3 2992.7;" xml:space="preserve">
<style type="text/css">
	.st0{fill:#3399CC;}
	.st1{fill:#3399CC;stroke:#FFFFFF;stroke-width:4;stroke-miterlimit:10;}
</style>
<g>
	<g>
		<path class="st0" d="M1704.2,1281.5c-7.7-26.3-12-53.9-12-82.6c0-167.7,141.9-303.6,317.1-303.6c61.1,0,118.1,16.6,166.5,45.2
			c-1.7-14.9-2.6-29.9-2.6-45.2c0-230.4,195-417.1,435.6-417.1c240.6,0,435.6,186.8,435.6,417.1c0,1.5,0,3.1-0.1,4.6
			c66.7-39.7,145.4-62.7,229.7-62.7c240.6,0,435.6,186.8,435.6,417.1c0,117.3-50.6,223.2-131.9,299c99,17.5,174.1,103.9,174.1,207.9
			c0,116.6-94.6,211.2-211.2,211.2H1727.6c-199.5,0-361.2-154.8-361.2-345.8C1366.4,1443.1,1515.6,1293,1704.2,1281.5z"/>
	</g>
	<g>
		<g>
			<g>
				<path class="st1" d="M2219.6,2407.6c134.1,0,241.4-65.7,345.1-129.3c89.8-55,174.5-106.9,272.8-115.7
					c13.5-1.2,26.9-1.8,39.9-1.8c174.8,0,251.2,107.4,254.4,111.9c10.2,14.6,26.9,23.4,44.7,23.4c11,0,21.6-3.3,30.6-9.5
					c24.6-16.8,30.9-50.6,14.2-75.1c-4.4-6.5-110.8-159.2-343.7-159.2c-16.3,0-33.1,0.8-49.9,2.3c-123.6,11-223.3,72.1-319.7,131.2
					c-95.1,58.3-184.9,113.3-288.6,113.3c-6.9,0-13.9-0.2-20.8-0.7c-237.1-16.6-300.9-113.4-303.9-136.4
					c-3.4-25.2,5.6-55.8,21.3-72.9c9.3-10.1,20.5-15.1,34.3-15.1c1,0,2,0,3.1,0.1c25.9,1.3,42.6,20.8,48.7,29.2
					c6,8.3,8.9,15.6,10.3,20.3c-12.3,19.7-10.7,45.6,4.9,63.9c10.3,12,25.3,18.9,41.2,18.9c12.9,0,25.5-4.6,35.3-13.1
					c27.7-23.7,35.3-63.8,20.5-107.2c-18.9-55.2-75.5-116.3-155.4-120.3c-2.9-0.1-5.8-0.2-8.6-0.2c-44.4,0-83.8,17.3-114,50.1
					c-37.4,40.6-56.6,103.7-49,160.7c7.1,53.2,48.6,107.2,114,148.1c72.8,45.6,173.1,74,289.9,82.2
					C2200.5,2407.3,2210.1,2407.6,2219.6,2407.6L2219.6,2407.6z"/>
			</g>
			<g>
				<path class="st1" d="M1950.1,1986.3c2.5,0,5,0.1,7.6,0.2c70.2,3.5,120.2,57.6,136.8,106.3c12,35.1,6.6,66.8-14.4,84.7
					c-6.3,5.4-14.1,8.1-21.8,8.1c-9.4,0-18.8-4-25.4-11.7c-11.2-13.1-10.6-32.4,1-44.7c0.5-6-3.1-21.5-15.1-38.1
					c-7.8-10.8-29.6-36-64.5-37.7c-1.4-0.1-2.8-0.1-4.1-0.1c-19.6,0-36.3,7.3-49.6,21.8c-19.8,21.5-30.8,58.4-26.6,89.7
					c5.8,43.4,92.4,138.2,323.1,154.4c7.5,0.5,14.9,0.8,22.3,0.8c109.5,0,202-56.6,299.4-116.4c94.4-57.8,192-117.6,310.7-128.2
					c16.6-1.5,32.6-2.2,48-2.2c221.9,0,322.1,143.6,326.5,150.1c10.4,15.2,6.4,35.9-8.8,46.3c-5.8,4-12.3,5.9-18.9,5.9
					c-10.6,0-21.1-5.1-27.6-14.5c-3.7-5.3-86.1-120.9-271.5-120.9c-13.4,0-27.3,0.6-41.8,1.9c-103.1,9.2-189.9,62.4-281.7,118.6
					c-101.4,62.1-206,126.2-334.3,126.2c0,0,0,0,0,0c-8.9,0-18-0.3-27.1-1c-113.5-8-210.4-35.3-280.3-79.1
					c-60.1-37.6-98.2-86.2-104.4-133.2c-6.8-51.2,10.3-107.7,43.7-143.9C1877.6,2001.1,1911.6,1986.3,1950.1,1986.3 M1950.1,1944.7
					c-50.4,0-95.1,19.6-129.3,56.8c-42,45.7-62.9,113.7-54.3,177.6c7.9,59.3,52.9,118.7,123.6,163c75.7,47.4,179.2,76.9,299.5,85.3
					c10,0.7,20.1,1.1,30,1.1c63.3,0,126.6-14.1,193.7-43.2c57.5-24.9,110.7-57.6,162.2-89.1c87.6-53.7,170.3-104.3,263.7-112.7
					c12.9-1.1,25.7-1.7,38.1-1.7c68.5,0,129.1,17.2,180.1,51c38.5,25.6,57,51.7,57.2,52c14,20.2,37.1,32.3,61.8,32.3
					c15.2,0,29.8-4.5,42.4-13.1c33.9-23.3,42.8-69.9,19.7-104c-3.2-4.7-33.2-47.6-92.5-88.4c-76-52.3-168.8-79.9-268.3-79.9
					c-16.9,0-34.3,0.8-51.7,2.3c-128.5,11.5-230.3,73.9-328.8,134.2c-92.5,56.7-179.9,110.2-277.7,110.2c-6.4,0-12.9-0.2-19.4-0.7
					c-117.7-8.3-187.9-37.4-226.1-60.4c-45.4-27.3-57.8-52.7-58.7-58c-2.5-19,4.5-43.6,16-56.1c5.5-5.9,11-8.4,19-8.4
					c0.7,0,1.3,0,2,0.1c16.9,0.8,28.6,14.7,32.8,20.6c1.8,2.6,3.3,4.9,4.3,7c-11.1,25.6-7.2,56.2,12,78.6c14.3,16.7,35,26.2,57,26.2
					c17.9,0,35.2-6.4,48.8-18.1c34.4-29.5,44.3-78,26.6-129.7c-11.3-33-32.8-64.4-60.6-88.2c-32.8-28.1-72-44.1-113.5-46.2
					C1956.5,1944.8,1953.3,1944.7,1950.1,1944.7L1950.1,1944.7z"/>
			</g>
		</g>
		<g>
			<g>
				<path class="st1" d="M2393.1,2121c90.9,0,166.2-43.8,239-86.1c59-34.3,114.7-66.7,172.9-71.9c6.8-0.6,13.8-0.9,20.7-0.9
					c115.5,0,211,84.2,212,85.1c10,9,22.9,14,36.4,14c15.3,0,29.9-6.5,40.1-17.7c20.1-22.1,18.5-56.4-3.5-76.5
					c-5.1-4.6-126.1-113.3-284.7-113.3c-10.2,0-20.6,0.5-30.7,1.4c-82.3,7.3-151.1,47.4-217.8,86.1
					c-63.2,36.8-122.7,71.4-184.6,71.4c-3.9,0-7.9-0.1-11.7-0.4c-133.7-9.4-173.2-60.6-175-69.6c-1.3-10.1,2.5-23.7,8.5-30.3
					c2.3-2.5,3.9-3.2,7.1-3.2c0.3,0,0.7,0,1,0c7.5,0.4,13.4,6.7,16.7,11.7c-6.3,18-2.8,38.6,9.9,53.5c10.3,12,25.3,19,41.2,19
					c12.9,0,25.5-4.6,35.3-13.1c24-20.5,31-54,18.9-89.6c-14.1-41.2-56.5-86.8-116.5-89.8c-2.1-0.1-4.2-0.2-6.2-0.2
					c-33.6,0-64.5,13.6-87.2,38.2c-27.6,29.9-41.8,76.3-36.2,118.2c5.3,39.4,33.3,77.2,78.9,106.4c49.6,31.8,117.4,51.5,196,57
					C2380.1,2120.7,2386.6,2121,2393.1,2121z"/>
			</g>
			<g>
				<path class="st1" d="M2222.1,1821.2c1.7,0,3.5,0,5.2,0.1c50.3,2.5,86,41.1,97.9,75.8c9.3,27.2,4.5,52.3-12.7,67.1
					c-6.3,5.4-14.1,8.1-21.8,8.1c-9.4,0-18.8-4-25.4-11.7c-9.8-11.5-10.5-27.7-2.8-39.9c-2.6-9.7-16.2-31.4-38.5-32.5
					c-0.7,0-1.4-0.1-2.1-0.1c-9.1,0-16.2,3.2-22.4,9.9c-10.2,11-16,30.9-13.8,47.1c3.1,23.4,56.3,77.9,194.1,87.5
					c4.4,0.3,8.8,0.5,13.2,0.5c67.6,0,129.6-36.1,195.1-74.2c64.7-37.6,131.5-76.5,209.2-83.4c9.7-0.9,19.4-1.3,28.9-1.3
					c150.6,0,265.5,103.2,270.6,107.9c13.6,12.4,14.6,33.6,2.2,47.2c-6.6,7.3-15.7,10.9-24.8,10.9c-8,0-16.1-2.9-22.5-8.7
					c-1.1-1-101.4-90.4-225.9-90.4c-7.4,0-15,0.3-22.6,1c-62.8,5.6-120.4,39.1-181.5,74.6c-70.5,41-143.2,83.3-228.5,83.3
					c-6,0-12-0.2-18.1-0.6c-163.9-11.5-247.5-83.5-255.8-145.5c-4.8-36,7.3-75.7,30.9-101.3
					C2169,1832.3,2194.4,1821.2,2222.1,1821.2 M2222.1,1779.7c-39.4,0-75.8,16-102.5,44.9c-32.1,34.8-48,86.6-41.5,135
					c10.8,80.8,105.9,168.3,294,181.5c6.9,0.5,14,0.7,21,0.7c96.6,0,177.8-47.2,249.4-88.9c56.9-33.1,110.7-64.3,164.3-69.1
					c6.2-0.6,12.5-0.8,18.9-0.8c106.4,0,196.1,78,198.1,79.8c13.8,12.4,31.7,19.3,50.2,19.3c21.1,0,41.3-8.9,55.5-24.5
					c27.8-30.6,25.6-78-4.9-105.9c-3.6-3.3-36.6-32.9-88.8-61.5c-69.4-38-140-57.3-209.8-57.3c-10.9,0-21.8,0.5-32.6,1.4
					c-86.9,7.8-161,50.8-226.3,88.9l-0.2,0.1c-60.5,35.2-117.7,68.5-174,68.5c-3.4,0-6.9-0.1-10.3-0.4c-12.5-0.9-24.1-2.1-34.8-3.7
					c23.5-26.2,30-64.9,16.7-103.9c-8.7-25.6-25.4-49.7-46.8-68.1c-25.4-21.8-56-34.1-88.3-35.8
					C2226.9,1779.7,2224.5,1779.7,2222.1,1779.7C2222.1,1779.7,2222.1,1779.7,2222.1,1779.7L2222.1,1779.7z"/>
			</g>
		</g>
	</g>
</g>
</svg>
